<svg height="512pt" viewBox="0 0 512 512" width="512pt" xmlns="http://www.w3.org/2000/svg"><path d="m307.6875 235.660156v-112.550781h55.136719l-106.824219-123.109375-106.824219 123.109375h55.136719v51.144531c22.550781 2.898438 44.144531 10.792969 63.320312 23.300782 15.664063 10.21875 29.203126 23.144531 40.054688 38.105468zm0 0"/><path d="m512 432.101562c0-43.921874-35.449219-79.550781-79.300781-79.867187-2.09375-49.78125-43.097657-89.503906-93.394531-89.503906-15.878907 0-30.828126 3.972656-43.925782 10.957031-19.304687-41.742188-61.542968-70.703125-110.550781-70.703125-67.238281 0-121.746094 54.507813-121.746094 121.746094 0 9.863281 1.179688 19.449219 3.394531 28.632812-37.730468 6.378907-66.476562 39.191407-66.476562 78.738281 0 44.117188 35.765625 79.882813 79.882812 79.882813h352.238282c44.113281-.003906 79.878906-35.765625 79.878906-79.882813zm0 0"/></svg>